Coordinates
version=1
nRows=12
nColumns=24
inDegrees=yes

Units are S.I. units (second, meters, Newtons, ...)
If the header above contains a line with 'inDegrees', this indicates whether rotational values are in degrees (yes) or radians (no).

endheader
time	pelvis_tilt	pelvis_list	pelvis_rotation	pelvis_tx	pelvis_ty	pelvis_tz	hip_flexion_r	hip_adduction_r	hip_rotation_r	knee_angle_r	ankle_angle_r	subtalar_angle_r	mtp_angle_r	hip_flexion_l	hip_adduction_l	hip_rotation_l	knee_angle_l	ankle_angle_l	subtalar_angle_l	mtp_angle_l	lumbar_extension	lumbar_bending	lumbar_rotation
     15.00000000000000000000	     -2.21281029138322393734	      6.25013280696412643067	      9.02807690543421337281	      0.08194062898043998067	      0.86073050881197887829	     -0.04046032370011554136	     35.13923788806360448689	    -12.54520374485462497205	     -8.40417636414920998789	    -21.74656379106835402126	     -0.48549277202314083945	      0.00000000000000000000	      0.00000000000000000000	     -5.85737211739331176119	      9.96971025714023184605	     12.67346279523647112342	    -11.39419520039146682677	     13.73795249066905199697	      0.00000000000000000000	      0.00000000000000000000	    -13.82162282181124446367	     -4.23371602031578841974	    -16.72770545015248089271
     15.00833333333332930692	     -2.40197650247162330928	      6.46116150224078023001	      8.76347896872680642844	      0.08125906010326144902	      0.85824722954872034730	     -0.03822314184999864306	     35.08621769769851539422	    -12.33352548801091330688	     -7.56008444138238555610	    -18.62589974356641775444	     -0.68041569091504661149	      0.00000000000000000000	      0.00000000000000000000	     -6.48730035856499842595	      9.95575715740105238183	     12.45703564996279055777	    -11.30432108627698362113	     14.24958596741552874221	      0.00000000000000000000	      0.00000000000000000000	    -13.78644121865741034583	     -4.75384620355337617070	    -16.49696472032009708641
     15.01666666666666927199	     -2.71277437989791314621	      6.64153195331908907662	      8.62840380933815254139	      0.08034584094950904254	      0.85556713196897371532	     -0.03612856649355065952	     35.17204022503330662630	    -12.19224067569202851757	     -6.73107050487347624568	    -15.83543465734748600937	     -1.12566644646204516711	      0.00000000000000000000	      0.00000000000000000000	     -6.85740915362830083524	      9.95364908920254976010	     12.33725648060124591154	    -11.48522385604871054454	     14.85068148589346925803	      0.00000000000000000000	      0.00000000000000000000	    -13.64735638566060060839	     -5.23372939783636681454	    -16.43102161400137006808
     15.02500000000000035527	     -2.94711370744958456314	      6.70066432492259700382	      8.31204344709023246196	      0.07980957706090684167	      0.85292870942636234144	     -0.03394008889366192244	     35.20004502853858241451	    -11.84562130738556540166	     -5.73671665918066775447	    -13.42143618481220457284	     -1.56937209850217618268	      0.00000000000000000000	      0.00000000000000000000	     -7.32901598912161400534	      9.85074452419669732706	     12.08013163902379361048	    -11.60561501396724892743	     15.43579873388358869590	      0.00000000000000000000	      0.00000000000000000000	    -13.49616525856164273023	     -5.56123755066865932406	    -16.12865716833909246475
     15.03333333333332966220	     -3.12588859043932965065	      6.64645196928834280925	      8.14292949484161887597	      0.07936548803283018094	      0.85040185298615145193	     -0.03220627592911010778	     35.17837219859152497747	    -11.52437232907352715472	     -4.95769851499828106967	    -11.54615792185952471982	     -1.98285772667813553483	      0.00000000000000000000	      0.00000000000000000000	     -7.77641845732349068498	      9.65872773209971136055	     11.89167336670558228207	    -11.88703296208650250776	     16.04908611226745307476	      0.00000000000000000000	      0.00000000000000000000	    -13.38596291738091359491	     -5.67884095313761694257	    -15.96341854153101813552
     15.04166666666666962726	     -3.18798101317901361185	      6.51545823967728043868	      8.04640567507842519035	      0.07926022502095107780	      0.84804900802224258971	     -0.03087974438726676790	     35.11703916062204910986	    -11.21891558765272733922	     -4.42559460695835493738	    -10.39654717755957591407	     -2.11147224114352205504	      0.00000000000000000000	      0.00000000000000000000	     -8.32784875665105595033	      9.40322525330525138543	     11.73523771257681858060	    -12.25939944071290987893	     16.66633485545416704099	      0.00000000000000000000	      0.00000000000000000000	    -13.34980767489535224968	     -5.61935104049518230340	    -15.85946837122119212893
     15.05000000000000071054	     -3.15646256875802144748	      6.37888650474199359053	      8.06506138429424268566	      0.07946841400070640826	      0.84584764028669545688	     -0.02983850963279248772	     35.07794102326505480960	    -11.00042995561780223568	     -4.19634480648867036479	    -10.06048191355482401832	     -1.80932519207944242368	      0.00000000000000000000	      0.00000000000000000000	     -8.95882732599649500571	      9.13868135238734957682	     11.70104458589675822111	    -12.75084010357198316399	     17.28807500171283706436	      0.00000000000000000000	      0.00000000000000000000	    -13.38723831506749384346	     -5.49673776005348013740	    -15.85211060039489794349
     15.05833333333333001747	     -2.97949252302437450624	      6.21857795043496075493	      8.12152483239465361464	      0.08011676865319201923	      0.84386887092184126313	     -0.02889119385971273407	     34.99236563343837502771	    -10.78689787212972461816	     -4.22181278466074427769	    -10.46151590137209730358	     -1.29183552123511713461	      0.00000000000000000000	      0.00000000000000000000	     -9.77792521797677771644	      8.82722886824919328319	     11.80950832271392059170	    -13.22571107097949294484	     17.79724271249934375305	      0.00000000000000000000	      0.00000000000000000000	    -13.53499691399935578318	     -5.30345181314033986553	    -15.96865497387157617482
     15.06666666666666998253	     -2.89833004415298001177	      6.07608707844996320802	      8.15966116815057063150	      0.08107270573737584973	      0.84168034597018848153	     -0.02788997452810366984	     35.16140274153984535133	    -10.58777355003783249288	     -4.33578225717329424072	    -11.55247445773055936513	     -0.82281505804642063318	      0.00000000000000000000	      0.00000000000000000000	    -10.43851987492866051355	      8.56597157321617785897	     11.83956106532299301648	    -13.86558242673751628615	     18.26611098452221781940	      0.00000000000000000000	      0.00000000000000000000	    -13.52714278144149595562	     -5.15552276903670847474	    -16.02968454866110192825
     15.07499999999999928946	     -2.75100126201199257636	      5.93729980141900437474	      8.19946852476845933211	      0.08228908970188686389	      0.83960612095437880953	     -0.02687870443683967187	     35.32881378048018916616	    -10.39404159835903129760	     -4.53858025314611435164	    -13.15709407709265121866	     -0.53753303053281820123	      0.00000000000000000000	      0.00000000000000000000	    -11.15236439487499531253	      8.30536529972374637509	     11.92756989098731779109	    -14.55925996230372732043	     18.67137356779190326961	      0.00000000000000000000	      0.00000000000000000000	    -13.56929104758954807153	     -4.99836672764836187355	    -16.11871351513444494685
     15.08333333333333037274	     -2.56850633572072561961	      5.80461218725647309924	      8.21748191491188606506	      0.08375528719883054696	      0.83761980235091260116	     -0.02581147718998853466	     35.47727721559826363773	    -10.19034305859680955564	     -4.72381469778507678825	    -15.13174309847143206298	     -0.44557031633612248500	      0.00000000000000000000	      0.00000000000000000000	    -11.88852711845354725995	      8.05107691537672209847	     12.03492347427022224338	    -15.31269174468370586339	     19.02595152860986260634	      0.00000000000000000000	      0.00000000000000000000	    -13.61993097974096578184	     -4.85359736988692347381	    -16.26297405735576973029
     15.09166666666667033780	     -2.40244805352118007136	      5.68681110330795736019	      8.22138178926770812893	      0.08541969758528782097	      0.83565604270964988221	     -0.02472664645755909621	     35.61439661172857285010	     -9.98678467106277523158	     -4.85638435154865177878	    -17.37228879176550577768	     -0.43814565652000425633	      0.00000000000000000000	      0.00000000000000000000	    -12.55768505685943026151	      7.82756799559420013424	     12.09076183790650205196	    -16.21173092540492888247	     19.26164427583966443080	      0.00000000000000000000	      0.00000000000000000000	    -13.62937399025857132528	     -4.71826404533133469954	    -16.36534142026276583692
